<?xml version="1.0" encoding="utf-8" standalone="no"?>
<!DOCTYPE svg PUBLIC "-//W3C//DTD SVG 1.1//EN"
  "http://www.w3.org/Graphics/SVG/1.1/DTD/svg11.dtd">
<svg xmlns:xlink="http://www.w3.org/1999/xlink" width="720pt" height="360pt" viewBox="0 0 720 360" xmlns="http://www.w3.org/2000/svg" version="1.1">
 <metadata>
  <rdf:RDF xmlns:dc="http://purl.org/dc/elements/1.1/" xmlns:cc="http://creativecommons.org/ns#" xmlns:rdf="http://www.w3.org/1999/02/22-rdf-syntax-ns#">
   <cc:Work>
    <dc:type rdf:resource="http://purl.org/dc/dcmitype/StillImage"/>
    <dc:date>2022-09-17T16:46:20.037448</dc:date>
    <dc:format>image/svg+xml</dc:format>
    <dc:creator>
     <cc:Agent>
      <dc:title>Matplotlib v3.5.1, https://matplotlib.org/</dc:title>
     </cc:Agent>
    </dc:creator>
   </cc:Work>
  </rdf:RDF>
 </metadata>
 <defs>
  <style type="text/css">*{stroke-linejoin: round; stroke-linecap: butt}</style>
 </defs>
 <g id="figure_1">
  <g id="patch_1">
   <path d="M 0 360 
L 720 360 
L 720 0 
L 0 0 
L 0 360 
z
" style="fill: none"/>
  </g>
  <g id="axes_1">
   <g id="patch_2">
    <path d="M 50.633921 319.588031 
L 703.726104 319.588031 
L 703.726104 7.259232 
L 50.633921 7.259232 
z
" style="fill: #ffffff"/>
   </g>
   <g id="patch_3">
    <path d="M 442.489231 85.341432 
C 444.963546 85.341432 447.336853 83.695985 449.086458 80.767483 
C 450.836063 77.83898 451.819119 73.86652 451.819119 69.724992 
C 451.819119 65.583464 450.836063 61.611004 449.086458 58.682501 
C 447.336853 55.753999 444.963546 54.108552 442.489231 54.108552 
C 440.014915 54.108552 437.641609 55.753999 435.892003 58.682501 
C 434.142398 61.611004 433.159342 65.583464 433.159342 69.724992 
C 433.159342 73.86652 434.142398 77.83898 435.892003 80.767483 
C 437.641609 83.695985 440.014915 85.341432 442.489231 85.341432 
z
" clip-path="url(#p201b5d1985)" style="fill: #ffd700; opacity: 0.7"/>
   </g>
   <g id="patch_4">
    <path d="M 405.169677 147.807192 
C 407.643993 147.807192 410.0173 146.161745 411.766905 143.233242 
C 413.51651 140.30474 414.499566 136.33228 414.499566 132.190752 
C 414.499566 128.049224 413.51651 124.076764 411.766905 121.148261 
C 410.0173 118.219758 407.643993 116.574312 405.169677 116.574312 
C 402.695362 116.574312 400.322055 118.219758 398.57245 121.148261 
C 396.822845 124.076764 395.839789 128.049224 395.839789 132.190752 
C 395.839789 136.33228 396.822845 140.30474 398.57245 143.233242 
C 400.322055 146.161745 402.695362 147.807192 405.169677 147.807192 
z
" clip-path="url(#p201b5d1985)" style="fill: #ffd700; opacity: 0.7"/>
   </g>
   <g id="patch_5">
    <path d="M 479.808784 116.574312 
C 482.283099 116.574312 484.656406 114.928865 486.406011 112.000362 
C 488.155616 109.07186 489.138672 105.0994 489.138672 100.957872 
C 489.138672 96.816344 488.155616 92.843884 486.406011 89.915381 
C 484.656406 86.986879 482.283099 85.341432 479.808784 85.341432 
C 477.334469 85.341432 474.961162 86.986879 473.211557 89.915381 
C 471.461952 92.843884 470.478896 96.816344 470.478896 100.957872 
C 470.478896 105.0994 471.461952 109.07186 473.211557 112.000362 
C 474.961162 114.928865 477.334469 116.574312 479.808784 116.574312 
z
" clip-path="url(#p201b5d1985)" style="fill: #ffd700; opacity: 0.7"/>
   </g>
   <g id="patch_6">
    <path d="M 255.891464 208.711308 
C 258.365779 208.711308 260.739086 207.065861 262.488691 204.137358 
C 264.238297 201.208855 265.221352 197.236396 265.221352 193.094868 
C 265.221352 188.953339 264.238297 184.98088 262.488691 182.052377 
C 260.739086 179.123874 258.365779 177.478428 255.891464 177.478428 
C 253.417149 177.478428 251.043842 179.123874 249.294237 182.052377 
C 247.544632 184.98088 246.561576 188.953339 246.561576 193.094868 
C 246.561576 197.236396 247.544632 201.208855 249.294237 204.137358 
C 251.043842 207.065861 253.417149 208.711308 255.891464 208.711308 
z
" clip-path="url(#p201b5d1985)" style="fill: #ffd700; opacity: 0.7"/>
   </g>
   <g id="patch_7">
    <path d="M 330.530571 188.623969 
C 333.004886 188.623969 335.378193 186.978522 337.127798 184.05002 
C 338.877403 181.121517 339.860459 177.149057 339.860459 173.007529 
C 339.860459 168.866001 338.877403 164.893541 337.127798 161.965038 
C 335.378193 159.036536 333.004886 157.391089 330.530571 157.391089 
C 328.056255 157.391089 325.682949 159.036536 323.933343 161.965038 
C 322.183738 164.893541 321.200682 168.866001 321.200682 173.007529 
C 321.200682 177.149057 322.183738 181.121517 323.933343 184.05002 
C 325.682949 186.978522 328.056255 188.623969 330.530571 188.623969 
z
" clip-path="url(#p201b5d1985)" style="fill: #ffd700; opacity: 0.7"/>
   </g>
   <g id="patch_8">
    <path d="M 311.870794 282.189315 
C 314.345109 282.189315 316.718416 280.543869 318.468021 277.615366 
C 320.217626 274.686863 321.200682 270.714404 321.200682 266.572875 
C 321.200682 262.431347 320.217626 258.458887 318.468021 255.530385 
C 316.718416 252.601882 314.345109 250.956435 311.870794 250.956435 
C 309.396479 250.956435 307.023172 252.601882 305.273567 255.530385 
C 303.523962 258.458887 302.540906 262.431347 302.540906 266.572875 
C 302.540906 270.714404 303.523962 274.686863 305.273567 277.615366 
C 307.023172 280.543869 309.396479 282.189315 311.870794 282.189315 
z
" clip-path="url(#p201b5d1985)" style="fill: #ffd700; opacity: 0.7"/>
   </g>
   <g id="patch_9">
    <path d="M 367.850124 260.540333 
C 370.324439 260.540333 372.697746 258.894886 374.447351 255.966383 
C 376.196956 253.037881 377.180012 249.065421 377.180012 244.923893 
C 377.180012 240.782364 376.196956 236.809905 374.447351 233.881402 
C 372.697746 230.952899 370.324439 229.307453 367.850124 229.307453 
C 365.375809 229.307453 363.002502 230.952899 361.252897 233.881402 
C 359.503292 236.809905 358.520236 240.782364 358.520236 244.923893 
C 358.520236 249.065421 359.503292 253.037881 361.252897 255.966383 
C 363.002502 258.894886 365.375809 260.540333 367.850124 260.540333 
z
" clip-path="url(#p201b5d1985)" style="fill: #ffd700; opacity: 0.7"/>
   </g>
   <g id="patch_10">
    <path d="M 162.592581 354.105679 
C 165.066896 354.105679 167.440203 352.460232 169.189808 349.53173 
C 170.939413 346.603227 171.922469 342.630767 171.922469 338.489239 
C 171.922469 334.347711 170.939413 330.375251 169.189808 327.446748 
C 167.440203 324.518246 165.066896 322.872799 162.592581 322.872799 
C 160.118265 322.872799 157.744959 324.518246 155.995353 327.446748 
C 154.245748 330.375251 153.262692 334.347711 153.262692 338.489239 
C 153.262692 342.630767 154.245748 346.603227 155.995353 349.53173 
C 157.744959 352.460232 160.118265 354.105679 162.592581 354.105679 
z
" clip-path="url(#p201b5d1985)" style="fill: #ffd700; opacity: 0.7"/>
   </g>
   <g id="patch_11">
    <path d="M 106.613251 85.341432 
C 109.087566 85.341432 111.460873 83.695985 113.210478 80.767483 
C 114.960083 77.83898 115.943139 73.86652 115.943139 69.724992 
C 115.943139 65.583464 114.960083 61.611004 113.210478 58.682501 
C 111.460873 55.753999 109.087566 54.108552 106.613251 54.108552 
C 104.138935 54.108552 101.765629 55.753999 100.016023 58.682501 
C 98.266418 61.611004 97.283362 65.583464 97.283362 69.724992 
C 97.283362 73.86652 98.266418 77.83898 100.016023 80.767483 
C 101.765629 83.695985 104.138935 85.341432 106.613251 85.341432 
z
" clip-path="url(#p201b5d1985)" style="fill: #ffd700; opacity: 0.7"/>
   </g>
   <g id="patch_12">
    <path d="M 143.932804 116.574312 
C 146.407119 116.574312 148.780426 114.928865 150.530031 112.000362 
C 152.279637 109.07186 153.262692 105.0994 153.262692 100.957872 
C 153.262692 96.816344 152.279637 92.843884 150.530031 89.915381 
C 148.780426 86.986879 146.407119 85.341432 143.932804 85.341432 
C 141.458489 85.341432 139.085182 86.986879 137.335577 89.915381 
C 135.585972 92.843884 134.602916 96.816344 134.602916 100.957872 
C 134.602916 105.0994 135.585972 109.07186 137.335577 112.000362 
C 139.085182 114.928865 141.458489 116.574312 143.932804 116.574312 
z
" clip-path="url(#p201b5d1985)" style="fill: #ffd700; opacity: 0.7"/>
   </g>
   <g id="patch_13">
    <path d="M 647.746774 116.574312 
C 650.221089 116.574312 652.594396 114.928865 654.344001 112.000362 
C 656.093606 109.07186 657.076662 105.0994 657.076662 100.957872 
C 657.076662 96.816344 656.093606 92.843884 654.344001 89.915381 
C 652.594396 86.986879 650.221089 85.341432 647.746774 85.341432 
C 645.272459 85.341432 642.899152 86.986879 641.149547 89.915381 
C 639.399941 92.843884 638.416886 96.816344 638.416886 100.957872 
C 638.416886 105.0994 639.399941 109.07186 641.149547 112.000362 
C 642.899152 114.928865 645.272459 116.574312 647.746774 116.574312 
z
" clip-path="url(#p201b5d1985)" style="fill: #ffd700; opacity: 0.7"/>
   </g>
   <g id="patch_14">
    <path d="M 311.870794 147.807192 
C 314.345109 147.807192 316.718416 146.161745 318.468021 143.233242 
C 320.217626 140.30474 321.200682 136.33228 321.200682 132.190752 
C 321.200682 128.049224 320.217626 124.076764 318.468021 121.148261 
C 316.718416 118.219758 314.345109 116.574312 311.870794 116.574312 
C 309.396479 116.574312 307.023172 118.219758 305.273567 121.148261 
C 303.523962 124.076764 302.540906 128.049224 302.540906 132.190752 
C 302.540906 136.33228 303.523962 140.30474 305.273567 143.233242 
C 307.023172 146.161745 309.396479 147.807192 311.870794 147.807192 
z
" clip-path="url(#p201b5d1985)" style="fill: #ffd700; opacity: 0.7"/>
   </g>
   <g id="matplotlib.axis_1">
    <g id="xtick_1">
     <g id="line2d_1">
      <defs>
       <path id="m41fe144dd9" d="M 0 0 
L 0 3.5 
" style="stroke: #000000; stroke-width: 0.8"/>
      </defs>
      <g>
       <use xlink:href="#m41fe144dd9" x="50.633921" y="319.588031" style="stroke: #000000; stroke-width: 0.8"/>
      </g>
     </g>
     <g id="text_1">
      <!-- $10^{0}$ -->
      <g transform="translate(42.663839 335.106016)scale(0.12 -0.12)">
       <defs>
        <path id="CMR17-31" d="M 1702 4058 
C 1702 4192 1696 4192 1606 4192 
C 1357 3916 979 3827 621 3827 
C 602 3827 570 3827 563 3808 
C 557 3795 557 3782 557 3648 
C 755 3648 1088 3686 1344 3839 
L 1344 461 
C 1344 236 1331 160 781 160 
L 589 160 
L 589 0 
C 896 0 1216 0 1523 0 
C 1830 0 2150 0 2458 0 
L 2458 160 
L 2266 160 
C 1715 160 1702 230 1702 458 
L 1702 4058 
z
" transform="scale(0.015625)"/>
        <path id="CMR17-30" d="M 2688 2025 
C 2688 2416 2682 3080 2413 3591 
C 2176 4039 1798 4198 1466 4198 
C 1158 4198 768 4058 525 3597 
C 269 3118 243 2524 243 2025 
C 243 1661 250 1106 448 619 
C 723 -39 1216 -128 1466 -128 
C 1760 -128 2208 -7 2470 600 
C 2662 1042 2688 1559 2688 2025 
z
M 1466 -26 
C 1056 -26 813 325 723 812 
C 653 1188 653 1738 653 2096 
C 653 2588 653 2997 736 3387 
C 858 3929 1216 4096 1466 4096 
C 1728 4096 2067 3923 2189 3400 
C 2272 3036 2278 2607 2278 2096 
C 2278 1680 2278 1169 2202 792 
C 2067 95 1690 -26 1466 -26 
z
" transform="scale(0.015625)"/>
       </defs>
       <use xlink:href="#CMR17-31" transform="scale(0.996264)"/>
       <use xlink:href="#CMR17-30" transform="translate(45.690477 0)scale(0.996264)"/>
       <use xlink:href="#CMR17-30" transform="translate(91.380954 36.153639)scale(0.697382)"/>
      </g>
     </g>
    </g>
    <g id="xtick_2">
     <g id="line2d_2">
      <g>
       <use xlink:href="#m41fe144dd9" x="143.932804" y="319.588031" style="stroke: #000000; stroke-width: 0.8"/>
      </g>
     </g>
     <g id="text_2">
      <!-- $10^{5}$ -->
      <g transform="translate(135.962722 335.106016)scale(0.12 -0.12)">
       <defs>
        <path id="CMR17-35" d="M 730 3692 
C 794 3666 1056 3584 1325 3584 
C 1920 3584 2246 3911 2432 4100 
C 2432 4157 2432 4192 2394 4192 
C 2387 4192 2374 4192 2323 4163 
C 2099 4058 1837 3973 1517 3973 
C 1325 3973 1037 3999 723 4139 
C 653 4171 640 4171 634 4171 
C 602 4171 595 4164 595 4037 
L 595 2203 
C 595 2089 595 2057 659 2057 
C 691 2057 704 2070 736 2114 
C 941 2401 1222 2522 1542 2522 
C 1766 2522 2246 2382 2246 1289 
C 2246 1085 2246 715 2054 421 
C 1894 159 1645 25 1370 25 
C 947 25 518 320 403 814 
C 429 807 480 795 506 795 
C 589 795 749 840 749 1038 
C 749 1210 627 1280 506 1280 
C 358 1280 262 1190 262 1011 
C 262 454 704 -128 1382 -128 
C 2042 -128 2669 440 2669 1264 
C 2669 2030 2170 2624 1549 2624 
C 1222 2624 947 2503 730 2274 
L 730 3692 
z
" transform="scale(0.015625)"/>
       </defs>
       <use xlink:href="#CMR17-31" transform="scale(0.996264)"/>
       <use xlink:href="#CMR17-30" transform="translate(45.690477 0)scale(0.996264)"/>
       <use xlink:href="#CMR17-35" transform="translate(91.380954 36.153639)scale(0.697382)"/>
      </g>
     </g>
    </g>
    <g id="xtick_3">
     <g id="line2d_3">
      <g>
       <use xlink:href="#m41fe144dd9" x="237.231687" y="319.588031" style="stroke: #000000; stroke-width: 0.8"/>
      </g>
     </g>
     <g id="text_3">
      <!-- $10^{10}$ -->
      <g transform="translate(227.144514 335.106016)scale(0.12 -0.12)">
       <use xlink:href="#CMR17-31" transform="scale(0.996264)"/>
       <use xlink:href="#CMR17-30" transform="translate(45.690477 0)scale(0.996264)"/>
       <use xlink:href="#CMR17-31" transform="translate(91.380954 36.153639)scale(0.697382)"/>
       <use xlink:href="#CMR17-30" transform="translate(123.364136 36.153639)scale(0.697382)"/>
      </g>
     </g>
    </g>
    <g id="xtick_4">
     <g id="line2d_4">
      <g>
       <use xlink:href="#m41fe144dd9" x="330.530571" y="319.588031" style="stroke: #000000; stroke-width: 0.8"/>
      </g>
     </g>
     <g id="text_4">
      <!-- $10^{15}$ -->
      <g transform="translate(320.443398 335.106016)scale(0.12 -0.12)">
       <use xlink:href="#CMR17-31" transform="scale(0.996264)"/>
       <use xlink:href="#CMR17-30" transform="translate(45.690477 0)scale(0.996264)"/>
       <use xlink:href="#CMR17-31" transform="translate(91.380954 36.153639)scale(0.697382)"/>
       <use xlink:href="#CMR17-35" transform="translate(123.364136 36.153639)scale(0.697382)"/>
      </g>
     </g>
    </g>
    <g id="xtick_5">
     <g id="line2d_5">
      <g>
       <use xlink:href="#m41fe144dd9" x="423.829454" y="319.588031" style="stroke: #000000; stroke-width: 0.8"/>
      </g>
     </g>
     <g id="text_5">
      <!-- $10^{20}$ -->
      <g transform="translate(413.742281 335.106016)scale(0.12 -0.12)">
       <defs>
        <path id="CMR17-32" d="M 2669 989 
L 2554 989 
C 2490 536 2438 459 2413 420 
C 2381 369 1920 369 1830 369 
L 602 369 
C 832 619 1280 1072 1824 1597 
C 2214 1967 2669 2402 2669 3035 
C 2669 3790 2067 4224 1395 4224 
C 691 4224 262 3604 262 3030 
C 262 2780 448 2748 525 2748 
C 589 2748 781 2787 781 3010 
C 781 3207 614 3264 525 3264 
C 486 3264 448 3258 422 3245 
C 544 3790 915 4058 1306 4058 
C 1862 4058 2227 3617 2227 3035 
C 2227 2479 1901 2000 1536 1584 
L 262 146 
L 262 0 
L 2515 0 
L 2669 989 
z
" transform="scale(0.015625)"/>
       </defs>
       <use xlink:href="#CMR17-31" transform="scale(0.996264)"/>
       <use xlink:href="#CMR17-30" transform="translate(45.690477 0)scale(0.996264)"/>
       <use xlink:href="#CMR17-32" transform="translate(91.380954 36.153639)scale(0.697382)"/>
       <use xlink:href="#CMR17-30" transform="translate(123.364136 36.153639)scale(0.697382)"/>
      </g>
     </g>
    </g>
    <g id="xtick_6">
     <g id="line2d_6">
      <g>
       <use xlink:href="#m41fe144dd9" x="517.128337" y="319.588031" style="stroke: #000000; stroke-width: 0.8"/>
      </g>
     </g>
     <g id="text_6">
      <!-- $10^{25}$ -->
      <g transform="translate(507.041164 335.106016)scale(0.12 -0.12)">
       <use xlink:href="#CMR17-31" transform="scale(0.996264)"/>
       <use xlink:href="#CMR17-30" transform="translate(45.690477 0)scale(0.996264)"/>
       <use xlink:href="#CMR17-32" transform="translate(91.380954 36.153639)scale(0.697382)"/>
       <use xlink:href="#CMR17-35" transform="translate(123.364136 36.153639)scale(0.697382)"/>
      </g>
     </g>
    </g>
    <g id="xtick_7">
     <g id="line2d_7">
      <g>
       <use xlink:href="#m41fe144dd9" x="610.427221" y="319.588031" style="stroke: #000000; stroke-width: 0.8"/>
      </g>
     </g>
     <g id="text_7">
      <!-- $10^{30}$ -->
      <g transform="translate(600.340048 335.106016)scale(0.12 -0.12)">
       <defs>
        <path id="CMR17-33" d="M 1414 2157 
C 1984 2157 2234 1662 2234 1090 
C 2234 320 1824 25 1453 25 
C 1114 25 563 194 390 693 
C 422 680 454 680 486 680 
C 640 680 755 782 755 948 
C 755 1133 614 1216 486 1216 
C 378 1216 211 1165 211 926 
C 211 335 787 -128 1466 -128 
C 2176 -128 2720 430 2720 1085 
C 2720 1707 2208 2157 1600 2227 
C 2086 2328 2554 2756 2554 3329 
C 2554 3820 2048 4179 1472 4179 
C 890 4179 378 3829 378 3329 
C 378 3110 544 3072 627 3072 
C 762 3072 877 3155 877 3321 
C 877 3486 762 3569 627 3569 
C 602 3569 570 3569 544 3557 
C 730 3959 1235 4032 1459 4032 
C 1683 4032 2106 3925 2106 3320 
C 2106 3143 2080 2828 1862 2550 
C 1670 2304 1453 2304 1242 2284 
C 1210 2284 1062 2269 1037 2269 
C 992 2263 966 2257 966 2208 
C 966 2163 973 2157 1101 2157 
L 1414 2157 
z
" transform="scale(0.015625)"/>
       </defs>
       <use xlink:href="#CMR17-31" transform="scale(0.996264)"/>
       <use xlink:href="#CMR17-30" transform="translate(45.690477 0)scale(0.996264)"/>
       <use xlink:href="#CMR17-33" transform="translate(91.380954 36.153639)scale(0.697382)"/>
       <use xlink:href="#CMR17-30" transform="translate(123.364136 36.153639)scale(0.697382)"/>
      </g>
     </g>
    </g>
    <g id="xtick_8">
     <g id="line2d_8">
      <g>
       <use xlink:href="#m41fe144dd9" x="703.726104" y="319.588031" style="stroke: #000000; stroke-width: 0.8"/>
      </g>
     </g>
     <g id="text_8">
      <!-- $10^{35}$ -->
      <g transform="translate(693.638931 335.106016)scale(0.12 -0.12)">
       <use xlink:href="#CMR17-31" transform="scale(0.996264)"/>
       <use xlink:href="#CMR17-30" transform="translate(45.690477 0)scale(0.996264)"/>
       <use xlink:href="#CMR17-33" transform="translate(91.380954 36.153639)scale(0.697382)"/>
       <use xlink:href="#CMR17-35" transform="translate(123.364136 36.153639)scale(0.697382)"/>
      </g>
     </g>
    </g>
    <g id="text_9">
     <!-- Electron Number Density ($m^{-3}$) -->
     <g transform="translate(273.752086 353.81678)scale(0.15 -0.15)">
      <defs>
       <path id="NimbusSanL-Regu-45" d="M 1171 2112 
L 3712 2112 
L 3712 2638 
L 1171 2638 
L 1171 4146 
L 3808 4146 
L 3808 4672 
L 576 4672 
L 576 0 
L 3923 0 
L 3923 526 
L 1171 526 
L 1171 2112 
z
" transform="scale(0.015625)"/>
       <path id="NimbusSanL-Regu-6c" d="M 973 4672 
L 435 4672 
L 435 -2 
L 973 -2 
L 973 4672 
z
" transform="scale(0.015625)"/>
       <path id="NimbusSanL-Regu-65" d="M 3283 1529 
C 3283 2034 3245 2338 3149 2584 
C 2931 3127 2419 3456 1792 3456 
C 858 3456 256 2742 256 1645 
C 256 547 838 -128 1779 -128 
C 2547 -128 3078 310 3213 1044 
L 2675 1044 
C 2528 598 2227 365 1798 365 
C 1459 365 1171 520 992 805 
C 864 998 819 1193 813 1529 
L 3283 1529 
z
M 826 1984 
C 870 2577 1248 2962 1786 2962 
C 2310 2962 2714 2530 2714 1984 
C 2714 1984 2714 1984 2707 1984 
L 826 1984 
z
" transform="scale(0.015625)"/>
       <path id="NimbusSanL-Regu-63" d="M 3014 2236 
C 2989 2562 2918 2773 2790 2958 
C 2560 3271 2157 3456 1690 3456 
C 787 3456 198 2742 198 1632 
C 198 554 774 -128 1683 -128 
C 2483 -128 2989 350 3053 1167 
L 2515 1167 
C 2426 632 2150 365 1696 365 
C 1107 365 755 843 755 1632 
C 755 2466 1101 2962 1683 2962 
C 2131 2962 2413 2701 2477 2236 
L 3014 2236 
z
" transform="scale(0.015625)"/>
       <path id="NimbusSanL-Regu-74" d="M 1626 3380 
L 1075 3380 
L 1075 4288 
L 544 4288 
L 544 3380 
L 90 3380 
L 90 2944 
L 544 2944 
L 544 404 
C 544 64 774 -128 1190 -128 
C 1318 -128 1446 -116 1626 -83 
L 1626 366 
C 1555 346 1472 340 1370 340 
C 1139 340 1075 404 1075 641 
L 1075 2944 
L 1626 2944 
L 1626 3380 
z
" transform="scale(0.015625)"/>
       <path id="NimbusSanL-Regu-72" d="M 442 3359 
L 442 0 
L 979 0 
L 979 1741 
C 979 2221 1101 2535 1357 2720 
C 1523 2842 1683 2880 2054 2880 
L 2054 3432 
C 1965 3444 1920 3444 1850 3444 
C 1504 3444 1242 3240 934 2746 
L 934 3359 
L 442 3359 
z
" transform="scale(0.015625)"/>
       <path id="NimbusSanL-Regu-6f" d="M 1741 3456 
C 800 3456 230 2786 230 1663 
C 230 541 794 -128 1747 -128 
C 2688 -128 3264 541 3264 1638 
C 3264 2792 2707 3456 1741 3456 
z
M 1747 2962 
C 2349 2962 2707 2472 2707 1645 
C 2707 861 2336 365 1747 365 
C 1152 365 787 855 787 1663 
C 787 2466 1152 2962 1747 2962 
z
" transform="scale(0.015625)"/>
       <path id="NimbusSanL-Regu-6e" d="M 448 3359 
L 448 0 
L 986 0 
L 986 1853 
C 986 2539 1344 2988 1894 2988 
C 2317 2988 2586 2731 2586 2327 
L 2586 0 
L 3117 0 
L 3117 2539 
C 3117 3097 2701 3456 2054 3456 
C 1555 3456 1235 3263 941 2796 
L 941 3359 
L 448 3359 
z
" transform="scale(0.015625)"/>
       <path id="NimbusSanL-Regu-4e" d="M 4134 4672 
L 3571 4672 
L 3571 851 
L 1133 4672 
L 486 4672 
L 486 -2 
L 1050 -2 
L 1050 3787 
L 3462 -2 
L 4134 -2 
L 4134 4672 
z
" transform="scale(0.015625)"/>
       <path id="NimbusSanL-Regu-75" d="M 3085 33 
L 3085 3392 
L 2554 3392 
L 2554 1479 
C 2554 790 2195 340 1638 340 
C 1216 340 947 597 947 1003 
L 947 3392 
L 416 3392 
L 416 792 
C 416 232 832 -128 1485 -128 
C 1978 -128 2291 45 2605 488 
L 2605 33 
L 3085 33 
z
" transform="scale(0.015625)"/>
       <path id="NimbusSanL-Regu-6d" d="M 448 3359 
L 448 0 
L 986 0 
L 986 2109 
C 986 2597 1338 2988 1773 2988 
C 2170 2988 2394 2744 2394 2314 
L 2394 0 
L 2931 0 
L 2931 2109 
C 2931 2597 3283 2988 3718 2988 
C 4109 2988 4339 2738 4339 2314 
L 4339 0 
L 4877 0 
L 4877 2520 
C 4877 3122 4531 3456 3904 3456 
C 3456 3456 3187 3321 2874 2943 
C 2675 3302 2406 3456 1971 3456 
C 1523 3456 1229 3289 941 2885 
L 941 3359 
L 448 3359 
z
" transform="scale(0.015625)"/>
       <path id="NimbusSanL-Regu-62" d="M 346 4672 
L 346 -2 
L 826 -2 
L 826 448 
C 1082 57 1421 -128 1888 -128 
C 2771 -128 3347 592 3347 1702 
C 3347 2786 2797 3456 1914 3456 
C 1453 3456 1126 3282 877 2905 
L 877 4672 
L 346 4672 
z
M 1811 2956 
C 2406 2956 2790 2440 2790 1645 
C 2790 887 2394 372 1811 372 
C 1248 372 877 881 877 1664 
C 877 2447 1248 2956 1811 2956 
z
" transform="scale(0.015625)"/>
       <path id="NimbusSanL-Regu-44" d="M 570 0 
L 2368 0 
C 3546 0 4269 885 4269 2339 
C 4269 3787 3552 4672 2368 4672 
L 570 4672 
L 570 0 
z
M 1165 526 
L 1165 4146 
L 2266 4146 
C 3187 4146 3674 3524 3674 2333 
C 3674 1154 3187 526 2266 526 
L 1165 526 
z
" transform="scale(0.015625)"/>
       <path id="NimbusSanL-Regu-73" d="M 2803 2427 
C 2797 3085 2362 3456 1587 3456 
C 806 3456 301 3054 301 2436 
C 301 1913 570 1665 1363 1474 
L 1862 1353 
C 2234 1263 2381 1130 2381 888 
C 2381 576 2067 365 1600 365 
C 1312 365 1069 448 934 588 
C 851 684 813 779 781 1014 
L 218 1014 
C 243 241 678 -128 1555 -128 
C 2400 -128 2938 285 2938 929 
C 2938 1426 2656 1701 1990 1860 
L 1478 1981 
C 1043 2082 858 2223 858 2458 
C 858 2764 1133 2962 1568 2962 
C 1997 2962 2227 2777 2240 2427 
L 2803 2427 
z
" transform="scale(0.015625)"/>
       <path id="NimbusSanL-Regu-69" d="M 960 3359 
L 429 3359 
L 429 0 
L 960 0 
L 960 3359 
z
M 960 4672 
L 422 4672 
L 422 3999 
L 960 3999 
L 960 4672 
z
" transform="scale(0.015625)"/>
       <path id="NimbusSanL-Regu-79" d="M 2483 3360 
L 1555 738 
L 698 3360 
L 128 3360 
L 1261 -21 
L 1056 -554 
C 973 -792 851 -882 627 -882 
C 550 -882 461 -869 346 -843 
L 346 -1325 
C 454 -1382 563 -1408 704 -1408 
C 877 -1408 1062 -1350 1203 -1247 
C 1370 -1125 1466 -983 1568 -713 
L 3059 3360 
L 2483 3360 
z
" transform="scale(0.015625)"/>
       <path id="NimbusSanL-Regu-28" d="M 1510 4672 
C 870 3830 467 2660 467 1651 
C 467 636 870 -534 1510 -1376 
L 1862 -1376 
C 1299 -457 986 623 986 1651 
C 986 2673 1299 3759 1862 4672 
L 1510 4672 
z
" transform="scale(0.015625)"/>
       <path id="CMMI12-6d" d="M 1318 1871 
C 1331 1910 1491 2229 1728 2433 
C 1894 2586 2112 2689 2362 2689 
C 2618 2689 2707 2497 2707 2242 
C 2707 2203 2707 2076 2630 1775 
L 2470 1118 
C 2419 926 2298 453 2285 383 
C 2259 287 2221 121 2221 96 
C 2221 6 2291 -64 2387 -64 
C 2579 -64 2611 83 2669 313 
L 3053 1839 
C 3066 1890 3398 2689 4102 2689 
C 4358 2689 4448 2497 4448 2242 
C 4448 1884 4198 1188 4058 805 
C 4000 651 3968 568 3968 453 
C 3968 166 4166 -64 4474 -64 
C 5069 -64 5293 875 5293 913 
C 5293 945 5267 971 5229 971 
C 5171 971 5165 952 5133 843 
C 4986 332 4749 64 4493 64 
C 4429 64 4326 64 4326 269 
C 4326 436 4403 640 4429 710 
C 4544 1018 4832 1773 4832 2145 
C 4832 2528 4608 2816 4122 2816 
C 3693 2816 3347 2574 3091 2197 
C 3072 2542 2861 2816 2381 2816 
C 1811 2816 1510 2415 1395 2255 
C 1376 2618 1114 2816 832 2816 
C 646 2816 499 2727 378 2484 
C 262 2254 173 1865 173 1839 
C 173 1814 198 1782 243 1782 
C 294 1782 301 1788 339 1935 
C 435 2312 557 2689 813 2689 
C 960 2689 1011 2586 1011 2395 
C 1011 2254 947 2005 902 1807 
L 723 1118 
C 698 996 627 709 595 594 
C 550 428 480 128 480 96 
C 480 6 550 -64 646 -64 
C 723 -64 813 -26 864 70 
C 877 102 934 326 966 453 
L 1107 1028 
L 1318 1871 
z
" transform="scale(0.015625)"/>
       <path id="CMSY10-0" d="M 4218 1472 
C 4326 1472 4442 1472 4442 1600 
C 4442 1728 4326 1728 4218 1728 
L 755 1728 
C 646 1728 531 1728 531 1600 
C 531 1472 646 1472 755 1472 
L 4218 1472 
z
" transform="scale(0.015625)"/>
       <path id="NimbusSanL-Regu-29" d="M 595 -1376 
C 1235 -534 1638 636 1638 1644 
C 1638 2660 1235 3830 595 4672 
L 243 4672 
C 806 3753 1120 2673 1120 1644 
C 1120 623 806 -464 243 -1376 
L 595 -1376 
z
" transform="scale(0.015625)"/>
      </defs>
      <use xlink:href="#NimbusSanL-Regu-45" transform="scale(0.996264)"/>
      <use xlink:href="#NimbusSanL-Regu-6c" transform="translate(66.450031 0)scale(0.996264)"/>
      <use xlink:href="#NimbusSanL-Regu-65" transform="translate(88.566815 0)scale(0.996264)"/>
      <use xlink:href="#NimbusSanL-Regu-63" transform="translate(143.958492 0)scale(0.996264)"/>
      <use xlink:href="#NimbusSanL-Regu-74" transform="translate(193.771693 0)scale(0.996264)"/>
      <use xlink:href="#NimbusSanL-Regu-72" transform="translate(221.466863 0)scale(0.996264)"/>
      <use xlink:href="#NimbusSanL-Regu-6f" transform="translate(254.642092 0)scale(0.996264)"/>
      <use xlink:href="#NimbusSanL-Regu-6e" transform="translate(310.033769 0)scale(0.996264)"/>
      <use xlink:href="#NimbusSanL-Regu-4e" transform="translate(393.120616 0)scale(0.996264)"/>
      <use xlink:href="#NimbusSanL-Regu-75" transform="translate(465.050601 0)scale(0.996264)"/>
      <use xlink:href="#NimbusSanL-Regu-6d" transform="translate(520.442278 0)scale(0.996264)"/>
      <use xlink:href="#NimbusSanL-Regu-62" transform="translate(603.430708 0)scale(0.996264)"/>
      <use xlink:href="#NimbusSanL-Regu-65" transform="translate(658.822385 0)scale(0.996264)"/>
      <use xlink:href="#NimbusSanL-Regu-72" transform="translate(714.214062 0)scale(0.996264)"/>
      <use xlink:href="#NimbusSanL-Regu-44" transform="translate(775.084461 0)scale(0.996264)"/>
      <use xlink:href="#NimbusSanL-Regu-65" transform="translate(847.014446 0)scale(0.996264)"/>
      <use xlink:href="#NimbusSanL-Regu-6e" transform="translate(902.406123 0)scale(0.996264)"/>
      <use xlink:href="#NimbusSanL-Regu-73" transform="translate(957.7978 0)scale(0.996264)"/>
      <use xlink:href="#NimbusSanL-Regu-69" transform="translate(1007.611 0)scale(0.996264)"/>
      <use xlink:href="#NimbusSanL-Regu-74" transform="translate(1029.727785 0)scale(0.996264)"/>
      <use xlink:href="#NimbusSanL-Regu-79" transform="translate(1057.422954 0)scale(0.996264)"/>
      <use xlink:href="#NimbusSanL-Regu-28" transform="translate(1134.931324 0)scale(0.996264)"/>
      <use xlink:href="#CMMI12-6d" transform="translate(1168.106554 0)scale(0.996264)"/>
      <use xlink:href="#CMSY10-0" transform="translate(1253.433779 36.153639)scale(0.697382)"/>
      <use xlink:href="#CMR17-33" transform="translate(1307.674772 36.153639)scale(0.697382)"/>
      <use xlink:href="#NimbusSanL-Regu-29" transform="translate(1340.156086 0)scale(0.996264)"/>
     </g>
    </g>
   </g>
   <g id="matplotlib.axis_2">
    <g id="ytick_1">
     <g id="line2d_9">
      <defs>
       <path id="m2edac3813a" d="M 0 0 
L -3.5 0 
" style="stroke: #000000; stroke-width: 0.8"/>
      </defs>
      <g>
       <use xlink:href="#m2edac3813a" x="50.633921" y="319.588031" style="stroke: #000000; stroke-width: 0.8"/>
      </g>
     </g>
     <g id="text_10">
      <!-- $10^{-4}$ -->
      <g transform="translate(21.107251 323.847023)scale(0.12 -0.12)">
       <defs>
        <path id="CMR17-34" d="M 2150 4122 
C 2150 4256 2144 4256 2029 4256 
L 128 1254 
L 128 1088 
L 1779 1088 
L 1779 457 
C 1779 224 1766 160 1318 160 
L 1197 160 
L 1197 0 
C 1402 0 1747 0 1965 0 
C 2182 0 2528 0 2733 0 
L 2733 160 
L 2611 160 
C 2163 160 2150 224 2150 457 
L 2150 1088 
L 2803 1088 
L 2803 1254 
L 2150 1254 
L 2150 4122 
z
M 1798 3703 
L 1798 1254 
L 256 1254 
L 1798 3703 
z
" transform="scale(0.015625)"/>
       </defs>
       <use xlink:href="#CMR17-31" transform="scale(0.996264)"/>
       <use xlink:href="#CMR17-30" transform="translate(45.690477 0)scale(0.996264)"/>
       <use xlink:href="#CMSY10-0" transform="translate(91.380954 36.153639)scale(0.697382)"/>
       <use xlink:href="#CMR17-34" transform="translate(145.621947 36.153639)scale(0.697382)"/>
      </g>
     </g>
    </g>
    <g id="ytick_2">
     <g id="line2d_10">
      <g>
       <use xlink:href="#m2edac3813a" x="50.633921" y="257.122271" style="stroke: #000000; stroke-width: 0.8"/>
      </g>
     </g>
     <g id="text_11">
      <!-- $10^{-2}$ -->
      <g transform="translate(21.107251 261.381264)scale(0.12 -0.12)">
       <use xlink:href="#CMR17-31" transform="scale(0.996264)"/>
       <use xlink:href="#CMR17-30" transform="translate(45.690477 0)scale(0.996264)"/>
       <use xlink:href="#CMSY10-0" transform="translate(91.380954 36.153639)scale(0.697382)"/>
       <use xlink:href="#CMR17-32" transform="translate(145.621947 36.153639)scale(0.697382)"/>
      </g>
     </g>
    </g>
    <g id="ytick_3">
     <g id="line2d_11">
      <g>
       <use xlink:href="#m2edac3813a" x="50.633921" y="194.656512" style="stroke: #000000; stroke-width: 0.8"/>
      </g>
     </g>
     <g id="text_12">
      <!-- $10^{0}$ -->
      <g transform="translate(27.693757 198.915504)scale(0.12 -0.12)">
       <use xlink:href="#CMR17-31" transform="scale(0.996264)"/>
       <use xlink:href="#CMR17-30" transform="translate(45.690477 0)scale(0.996264)"/>
       <use xlink:href="#CMR17-30" transform="translate(91.380954 36.153639)scale(0.697382)"/>
      </g>
     </g>
    </g>
    <g id="ytick_4">
     <g id="line2d_12">
      <g>
       <use xlink:href="#m2edac3813a" x="50.633921" y="132.190752" style="stroke: #000000; stroke-width: 0.8"/>
      </g>
     </g>
     <g id="text_13">
      <!-- $10^{2}$ -->
      <g transform="translate(27.693757 136.449744)scale(0.12 -0.12)">
       <use xlink:href="#CMR17-31" transform="scale(0.996264)"/>
       <use xlink:href="#CMR17-30" transform="translate(45.690477 0)scale(0.996264)"/>
       <use xlink:href="#CMR17-32" transform="translate(91.380954 36.153639)scale(0.697382)"/>
      </g>
     </g>
    </g>
    <g id="ytick_5">
     <g id="line2d_13">
      <g>
       <use xlink:href="#m2edac3813a" x="50.633921" y="69.724992" style="stroke: #000000; stroke-width: 0.8"/>
      </g>
     </g>
     <g id="text_14">
      <!-- $10^{4}$ -->
      <g transform="translate(27.693757 73.983984)scale(0.12 -0.12)">
       <use xlink:href="#CMR17-31" transform="scale(0.996264)"/>
       <use xlink:href="#CMR17-30" transform="translate(45.690477 0)scale(0.996264)"/>
       <use xlink:href="#CMR17-34" transform="translate(91.380954 36.153639)scale(0.697382)"/>
      </g>
     </g>
    </g>
    <g id="ytick_6">
     <g id="line2d_14">
      <g>
       <use xlink:href="#m2edac3813a" x="50.633921" y="7.259232" style="stroke: #000000; stroke-width: 0.8"/>
      </g>
     </g>
     <g id="text_15">
      <!-- $10^{6}$ -->
      <g transform="translate(27.693757 11.518224)scale(0.12 -0.12)">
       <defs>
        <path id="CMR17-36" d="M 678 2176 
C 678 3690 1395 4032 1811 4032 
C 1946 4032 2272 4009 2400 3776 
C 2298 3776 2106 3776 2106 3553 
C 2106 3381 2246 3323 2336 3323 
C 2394 3323 2566 3348 2566 3560 
C 2566 3954 2246 4179 1805 4179 
C 1043 4179 243 3390 243 1984 
C 243 253 966 -128 1478 -128 
C 2099 -128 2688 427 2688 1283 
C 2688 2081 2170 2662 1517 2662 
C 1126 2662 838 2407 678 1960 
L 678 2176 
z
M 1478 25 
C 691 25 691 1200 691 1436 
C 691 1896 909 2560 1504 2560 
C 1613 2560 1926 2560 2138 2120 
C 2253 1870 2253 1609 2253 1289 
C 2253 944 2253 690 2118 434 
C 1978 171 1773 25 1478 25 
z
" transform="scale(0.015625)"/>
       </defs>
       <use xlink:href="#CMR17-31" transform="scale(0.996264)"/>
       <use xlink:href="#CMR17-30" transform="translate(45.690477 0)scale(0.996264)"/>
       <use xlink:href="#CMR17-36" transform="translate(91.380954 36.153639)scale(0.697382)"/>
      </g>
     </g>
    </g>
    <g id="text_16">
     <!-- Electron Temperature (eV) -->
     <g transform="translate(13.924271 250.897021)rotate(-90)scale(0.15 -0.15)">
      <defs>
       <path id="NimbusSanL-Regu-54" d="M 2266 4146 
L 3795 4146 
L 3795 4672 
L 134 4672 
L 134 4146 
L 1670 4146 
L 1670 -14 
L 2266 -14 
L 2266 4146 
z
" transform="scale(0.015625)"/>
       <path id="NimbusSanL-Regu-70" d="M 346 -1408 
L 883 -1408 
L 883 320 
C 1165 -27 1478 -180 1914 -180 
C 2778 -180 3347 522 3347 1599 
C 3347 2734 2797 3444 1907 3444 
C 1453 3444 1088 3238 838 2841 
L 838 3349 
L 346 3349 
L 346 -1408 
z
M 1818 2944 
C 2406 2944 2790 2420 2790 1612 
C 2790 843 2400 320 1818 320 
C 1254 320 883 837 883 1632 
C 883 2427 1254 2944 1818 2944 
z
" transform="scale(0.015625)"/>
       <path id="NimbusSanL-Regu-61" d="M 3424 333 
C 3366 320 3341 320 3309 320 
C 3123 320 3021 415 3021 581 
L 3021 2545 
C 3021 3137 2586 3456 1760 3456 
C 1274 3456 870 3316 646 3066 
C 493 2893 429 2702 416 2370 
L 954 2370 
C 998 2777 1242 2962 1741 2962 
C 2221 2962 2490 2783 2490 2465 
L 2490 2325 
C 2490 2101 2355 2006 1933 1955 
C 1178 1860 1062 1834 858 1751 
C 467 1592 269 1292 269 859 
C 269 254 691 -128 1370 -128 
C 1792 -128 2131 19 2509 365 
C 2547 25 2714 -128 3059 -128 
C 3168 -128 3251 -116 3424 -70 
L 3424 333 
z
M 2490 1072 
C 2490 893 2438 785 2278 639 
C 2061 441 1798 340 1485 340 
C 1069 340 826 537 826 874 
C 826 1225 1062 1403 1632 1486 
C 2195 1562 2310 1588 2490 1670 
L 2490 1072 
z
" transform="scale(0.015625)"/>
       <path id="NimbusSanL-Regu-56" d="M 2509 0 
L 4128 4672 
L 3494 4672 
L 2202 718 
L 832 4672 
L 192 4672 
L 1869 0 
L 2509 0 
z
" transform="scale(0.015625)"/>
      </defs>
      <use xlink:href="#NimbusSanL-Regu-45" transform="scale(0.996264)"/>
      <use xlink:href="#NimbusSanL-Regu-6c" transform="translate(66.450031 0)scale(0.996264)"/>
      <use xlink:href="#NimbusSanL-Regu-65" transform="translate(88.566815 0)scale(0.996264)"/>
      <use xlink:href="#NimbusSanL-Regu-63" transform="translate(143.958492 0)scale(0.996264)"/>
      <use xlink:href="#NimbusSanL-Regu-74" transform="translate(193.771693 0)scale(0.996264)"/>
      <use xlink:href="#NimbusSanL-Regu-72" transform="translate(221.466863 0)scale(0.996264)"/>
      <use xlink:href="#NimbusSanL-Regu-6f" transform="translate(254.642092 0)scale(0.996264)"/>
      <use xlink:href="#NimbusSanL-Regu-6e" transform="translate(310.033769 0)scale(0.996264)"/>
      <use xlink:href="#NimbusSanL-Regu-54" transform="translate(393.120616 0)scale(0.996264)"/>
      <use xlink:href="#NimbusSanL-Regu-65" transform="translate(442.037565 0)scale(0.996264)"/>
      <use xlink:href="#NimbusSanL-Regu-6d" transform="translate(497.429242 0)scale(0.996264)"/>
      <use xlink:href="#NimbusSanL-Regu-70" transform="translate(580.417672 0)scale(0.996264)"/>
      <use xlink:href="#NimbusSanL-Regu-65" transform="translate(635.809349 0)scale(0.996264)"/>
      <use xlink:href="#NimbusSanL-Regu-72" transform="translate(691.201026 0)scale(0.996264)"/>
      <use xlink:href="#NimbusSanL-Regu-61" transform="translate(723.380159 0)scale(0.996264)"/>
      <use xlink:href="#NimbusSanL-Regu-74" transform="translate(778.771836 0)scale(0.996264)"/>
      <use xlink:href="#NimbusSanL-Regu-75" transform="translate(806.467005 0)scale(0.996264)"/>
      <use xlink:href="#NimbusSanL-Regu-72" transform="translate(861.858682 0)scale(0.996264)"/>
      <use xlink:href="#NimbusSanL-Regu-65" transform="translate(895.033912 0)scale(0.996264)"/>
      <use xlink:href="#NimbusSanL-Regu-28" transform="translate(978.120759 0)scale(0.996264)"/>
      <use xlink:href="#NimbusSanL-Regu-65" transform="translate(1011.295988 0)scale(0.996264)"/>
      <use xlink:href="#NimbusSanL-Regu-56" transform="translate(1066.687665 0)scale(0.996264)"/>
      <use xlink:href="#NimbusSanL-Regu-29" transform="translate(1133.137697 0)scale(0.996264)"/>
     </g>
    </g>
   </g>
   <g id="line2d_15">
    <path d="M 209.099871 361 
L 703.726104 85.030249 
" clip-path="url(#p201b5d1985)" style="fill: none; stroke: #d62728; stroke-opacity: 0.7; stroke-width: 1.5; stroke-linecap: square"/>
   </g>
   <g id="line2d_16">
    <path d="M 50.633921 345.304249 
L 671.322114 -1 
" clip-path="url(#p201b5d1985)" style="fill: none; stroke: #d62728; stroke-opacity: 0.7; stroke-width: 1.5; stroke-linecap: square"/>
   </g>
   <g id="line2d_17">
    <path d="M 50.633921 241.194649 
L 484.724348 -1 
" clip-path="url(#p201b5d1985)" style="fill: none; stroke: #d62728; stroke-opacity: 0.7; stroke-width: 1.5; stroke-linecap: square"/>
   </g>
   <g id="line2d_18">
    <path d="M 50.633921 137.085049 
L 298.126581 -1 
" clip-path="url(#p201b5d1985)" style="fill: none; stroke: #d62728; stroke-opacity: 0.7; stroke-width: 1.5; stroke-linecap: square"/>
   </g>
   <g id="line2d_19">
    <path d="M 50.633921 186.59773 
L 162.712338 -1 
" clip-path="url(#p201b5d1985)" style="fill: none; stroke-dasharray: 5.55,2.4; stroke-dashoffset: 0; stroke: #1f77b4; stroke-opacity: 0.7; stroke-width: 1.5"/>
   </g>
   <g id="line2d_20">
    <path d="M 50.633921 311.52925 
L 237.351445 -1 
" clip-path="url(#p201b5d1985)" style="fill: none; stroke-dasharray: 5.55,2.4; stroke-dashoffset: 0; stroke: #1f77b4; stroke-opacity: 0.7; stroke-width: 1.5"/>
   </g>
   <g id="line2d_21">
    <path d="M 95.717215 361 
L 311.990551 -1 
" clip-path="url(#p201b5d1985)" style="fill: none; stroke-dasharray: 5.55,2.4; stroke-dashoffset: 0; stroke: #1f77b4; stroke-opacity: 0.7; stroke-width: 1.5"/>
   </g>
   <g id="line2d_22">
    <path d="M 170.356321 361 
L 386.629658 -1 
" clip-path="url(#p201b5d1985)" style="fill: none; stroke-dasharray: 5.55,2.4; stroke-dashoffset: 0; stroke: #1f77b4; stroke-opacity: 0.7; stroke-width: 1.5"/>
   </g>
   <g id="line2d_23">
    <path d="M 244.995428 361 
L 461.268764 -1 
" clip-path="url(#p201b5d1985)" style="fill: none; stroke-dasharray: 5.55,2.4; stroke-dashoffset: 0; stroke: #1f77b4; stroke-opacity: 0.7; stroke-width: 1.5"/>
   </g>
   <g id="line2d_24">
    <path d="M 319.634534 361 
L 535.907871 -1 
" clip-path="url(#p201b5d1985)" style="fill: none; stroke-dasharray: 5.55,2.4; stroke-dashoffset: 0; stroke: #1f77b4; stroke-opacity: 0.7; stroke-width: 1.5"/>
   </g>
   <g id="line2d_25">
    <path d="M 394.273641 361 
L 610.546978 -1 
" clip-path="url(#p201b5d1985)" style="fill: none; stroke-dasharray: 5.55,2.4; stroke-dashoffset: 0; stroke: #1f77b4; stroke-opacity: 0.7; stroke-width: 1.5"/>
   </g>
   <g id="line2d_26">
    <path d="M 468.912748 361 
L 685.186084 -1 
" clip-path="url(#p201b5d1985)" style="fill: none; stroke-dasharray: 5.55,2.4; stroke-dashoffset: 0; stroke: #1f77b4; stroke-opacity: 0.7; stroke-width: 1.5"/>
   </g>
   <g id="line2d_27">
    <path d="M 543.551854 361 
L 703.726104 92.89909 
" clip-path="url(#p201b5d1985)" style="fill: none; stroke-dasharray: 5.55,2.4; stroke-dashoffset: 0; stroke: #1f77b4; stroke-opacity: 0.7; stroke-width: 1.5"/>
   </g>
   <g id="patch_15">
    <path d="M 50.633921 319.588031 
L 50.633921 7.259232 
" style="fill: none; stroke: #000000; stroke-width: 0.8; stroke-linejoin: miter; stroke-linecap: square"/>
   </g>
   <g id="patch_16">
    <path d="M 703.726104 319.588031 
L 703.726104 7.259232 
" style="fill: none; stroke: #000000; stroke-width: 0.8; stroke-linejoin: miter; stroke-linecap: square"/>
   </g>
   <g id="patch_17">
    <path d="M 50.633921 319.588031 
L 703.726104 319.588031 
" style="fill: none; stroke: #000000; stroke-width: 0.8; stroke-linejoin: miter; stroke-linecap: square"/>
   </g>
   <g id="patch_18">
    <path d="M 50.633921 7.259232 
L 703.726104 7.259232 
" style="fill: none; stroke: #000000; stroke-width: 0.8; stroke-linejoin: miter; stroke-linecap: square"/>
   </g>
   <g id="text_17">
    <!-- Fusion Reactor -->
    <g transform="translate(442.489231 69.724992)scale(0.12 -0.12)">
     <defs>
      <path id="NimbusSanL-Regu-46" d="M 1171 2112 
L 3398 2112 
L 3398 2638 
L 1171 2638 
L 1171 4146 
L 3706 4146 
L 3706 4672 
L 576 4672 
L 576 -14 
L 1171 -14 
L 1171 2112 
z
" transform="scale(0.015625)"/>
      <path id="NimbusSanL-Regu-52" d="M 1190 2034 
L 2726 2034 
C 3258 2034 3494 1774 3494 1187 
L 3488 762 
C 3488 468 3539 181 3622 -14 
L 4346 -14 
L 4346 136 
C 4122 292 4077 462 4064 1093 
C 4058 1873 3936 2108 3430 2329 
C 3955 2583 4166 2906 4166 3434 
C 4166 4233 3661 4672 2746 4672 
L 595 4672 
L 595 -14 
L 1190 -14 
L 1190 2034 
z
M 1190 2560 
L 1190 4146 
L 2630 4146 
C 2963 4146 3155 4096 3302 3969 
C 3462 3836 3546 3628 3546 3350 
C 3546 2806 3264 2560 2630 2560 
L 1190 2560 
z
" transform="scale(0.015625)"/>
     </defs>
     <use xlink:href="#NimbusSanL-Regu-46" transform="scale(0.996264)"/>
     <use xlink:href="#NimbusSanL-Regu-75" transform="translate(60.871631 0)scale(0.996264)"/>
     <use xlink:href="#NimbusSanL-Regu-73" transform="translate(116.263308 0)scale(0.996264)"/>
     <use xlink:href="#NimbusSanL-Regu-69" transform="translate(166.076508 0)scale(0.996264)"/>
     <use xlink:href="#NimbusSanL-Regu-6f" transform="translate(188.193292 0)scale(0.996264)"/>
     <use xlink:href="#NimbusSanL-Regu-6e" transform="translate(243.584969 0)scale(0.996264)"/>
     <use xlink:href="#NimbusSanL-Regu-52" transform="translate(326.671816 0)scale(0.996264)"/>
     <use xlink:href="#NimbusSanL-Regu-65" transform="translate(398.601801 0)scale(0.996264)"/>
     <use xlink:href="#NimbusSanL-Regu-61" transform="translate(453.993478 0)scale(0.996264)"/>
     <use xlink:href="#NimbusSanL-Regu-63" transform="translate(509.385155 0)scale(0.996264)"/>
     <use xlink:href="#NimbusSanL-Regu-74" transform="translate(559.198355 0)scale(0.996264)"/>
     <use xlink:href="#NimbusSanL-Regu-6f" transform="translate(586.893525 0)scale(0.996264)"/>
     <use xlink:href="#NimbusSanL-Regu-72" transform="translate(642.285202 0)scale(0.996264)"/>
    </g>
   </g>
   <g id="text_18">
    <!-- Torus -->
    <g transform="translate(405.169677 132.190752)scale(0.12 -0.12)">
     <use xlink:href="#NimbusSanL-Regu-54" transform="scale(0.996264)"/>
     <use xlink:href="#NimbusSanL-Regu-6f" transform="translate(48.916949 0)scale(0.996264)"/>
     <use xlink:href="#NimbusSanL-Regu-72" transform="translate(104.308626 0)scale(0.996264)"/>
     <use xlink:href="#NimbusSanL-Regu-75" transform="translate(138.977233 0)scale(0.996264)"/>
     <use xlink:href="#NimbusSanL-Regu-73" transform="translate(194.36891 0)scale(0.996264)"/>
    </g>
   </g>
   <g id="text_19">
    <!-- Pinch -->
    <g transform="translate(479.808784 100.957872)scale(0.12 -0.12)">
     <defs>
      <path id="NimbusSanL-Regu-50" d="M 1178 1984 
L 2643 1984 
C 3008 1984 3296 2093 3546 2316 
C 3827 2573 3949 2873 3949 3303 
C 3949 4179 3430 4672 2509 4672 
L 582 4672 
L 582 -14 
L 1178 -14 
L 1178 1984 
z
M 1178 2510 
L 1178 4146 
L 2419 4146 
C 2989 4146 3328 3839 3328 3327 
C 3328 2816 2989 2510 2419 2510 
L 1178 2510 
z
" transform="scale(0.015625)"/>
      <path id="NimbusSanL-Regu-68" d="M 448 4672 
L 448 -2 
L 979 -2 
L 979 1852 
C 979 2539 1338 2988 1888 2988 
C 2061 2988 2234 2930 2362 2834 
C 2515 2725 2579 2564 2579 2327 
L 2579 -2 
L 3110 -2 
L 3110 2538 
C 3110 3103 2707 3456 2054 3456 
C 1581 3456 1293 3308 979 2898 
L 979 4672 
L 448 4672 
z
" transform="scale(0.015625)"/>
     </defs>
     <use xlink:href="#NimbusSanL-Regu-50" transform="scale(0.996264)"/>
     <use xlink:href="#NimbusSanL-Regu-69" transform="translate(66.450031 0)scale(0.996264)"/>
     <use xlink:href="#NimbusSanL-Regu-6e" transform="translate(88.566815 0)scale(0.996264)"/>
     <use xlink:href="#NimbusSanL-Regu-63" transform="translate(143.958492 0)scale(0.996264)"/>
     <use xlink:href="#NimbusSanL-Regu-68" transform="translate(193.771693 0)scale(0.996264)"/>
    </g>
   </g>
   <g id="text_20">
    <!-- Ionophere -->
    <g transform="translate(255.891464 193.094868)scale(0.12 -0.12)">
     <defs>
      <path id="NimbusSanL-Regu-49" d="M 1242 4672 
L 640 4672 
L 640 -2 
L 1242 -2 
L 1242 4672 
z
" transform="scale(0.015625)"/>
     </defs>
     <use xlink:href="#NimbusSanL-Regu-49" transform="scale(0.996264)"/>
     <use xlink:href="#NimbusSanL-Regu-6f" transform="translate(27.69517 0)scale(0.996264)"/>
     <use xlink:href="#NimbusSanL-Regu-6e" transform="translate(83.086847 0)scale(0.996264)"/>
     <use xlink:href="#NimbusSanL-Regu-6f" transform="translate(138.478524 0)scale(0.996264)"/>
     <use xlink:href="#NimbusSanL-Regu-70" transform="translate(193.8702 0)scale(0.996264)"/>
     <use xlink:href="#NimbusSanL-Regu-68" transform="translate(249.261877 0)scale(0.996264)"/>
     <use xlink:href="#NimbusSanL-Regu-65" transform="translate(304.653554 0)scale(0.996264)"/>
     <use xlink:href="#NimbusSanL-Regu-72" transform="translate(360.045231 0)scale(0.996264)"/>
     <use xlink:href="#NimbusSanL-Regu-65" transform="translate(393.220461 0)scale(0.996264)"/>
    </g>
   </g>
   <g id="text_21">
    <!-- Glow Discharge -->
    <g transform="translate(330.530571 173.007529)scale(0.12 -0.12)">
     <defs>
      <path id="NimbusSanL-Regu-47" d="M 4538 2496 
L 2592 2496 
L 2592 1971 
L 4013 1971 
L 4013 1841 
C 4013 1003 3398 397 2547 397 
C 2074 397 1645 569 1370 870 
C 1062 1201 877 1756 877 2330 
C 877 3471 1530 4224 2515 4224 
C 3226 4224 3738 3864 3866 3272 
L 4474 3272 
C 4307 4211 3590 4750 2522 4750 
C 1952 4750 1491 4603 1126 4303 
C 589 3856 282 3135 282 2298 
C 282 868 1158 -128 2419 -128 
C 3053 -128 3558 109 4013 616 
L 4160 -7 
L 4538 -7 
L 4538 2496 
z
" transform="scale(0.015625)"/>
      <path id="NimbusSanL-Regu-77" d="M 3546 0 
L 4531 3360 
L 3930 3360 
L 3264 744 
L 2605 3360 
L 1952 3360 
L 1312 744 
L 627 3360 
L 38 3360 
L 1011 0 
L 1613 0 
L 2259 2635 
L 2938 0 
L 3546 0 
z
" transform="scale(0.015625)"/>
      <path id="NimbusSanL-Regu-67" d="M 2637 3341 
L 2637 2854 
C 2368 3252 2042 3438 1613 3438 
C 762 3438 186 2692 186 1600 
C 186 1048 333 598 608 276 
C 858 -7 1216 -173 1568 -173 
C 1990 -173 2285 6 2586 429 
L 2586 258 
C 2586 -192 2528 -465 2394 -649 
C 2253 -844 1978 -959 1651 -959 
C 1408 -959 1190 -896 1043 -783 
C 922 -688 870 -600 838 -406 
L 294 -406 
C 352 -1033 845 -1408 1632 -1408 
C 2131 -1408 2560 -1247 2778 -979 
C 3034 -671 3130 -249 3130 538 
L 3130 3341 
L 2637 3341 
z
M 1670 2944 
C 2246 2944 2586 2455 2586 1613 
C 2586 808 2240 320 1677 320 
C 1094 320 742 816 742 1632 
C 742 2442 1101 2944 1670 2944 
z
" transform="scale(0.015625)"/>
     </defs>
     <use xlink:href="#NimbusSanL-Regu-47" transform="scale(0.996264)"/>
     <use xlink:href="#NimbusSanL-Regu-6c" transform="translate(77.50837 0)scale(0.996264)"/>
     <use xlink:href="#NimbusSanL-Regu-6f" transform="translate(99.625154 0)scale(0.996264)"/>
     <use xlink:href="#NimbusSanL-Regu-77" transform="translate(153.523439 0)scale(0.996264)"/>
     <use xlink:href="#NimbusSanL-Regu-44" transform="translate(253.148593 0)scale(0.996264)"/>
     <use xlink:href="#NimbusSanL-Regu-69" transform="translate(325.078578 0)scale(0.996264)"/>
     <use xlink:href="#NimbusSanL-Regu-73" transform="translate(347.195362 0)scale(0.996264)"/>
     <use xlink:href="#NimbusSanL-Regu-63" transform="translate(397.008563 0)scale(0.996264)"/>
     <use xlink:href="#NimbusSanL-Regu-68" transform="translate(446.821763 0)scale(0.996264)"/>
     <use xlink:href="#NimbusSanL-Regu-61" transform="translate(502.21344 0)scale(0.996264)"/>
     <use xlink:href="#NimbusSanL-Regu-72" transform="translate(557.605117 0)scale(0.996264)"/>
     <use xlink:href="#NimbusSanL-Regu-67" transform="translate(590.780347 0)scale(0.996264)"/>
     <use xlink:href="#NimbusSanL-Regu-65" transform="translate(646.172024 0)scale(0.996264)"/>
    </g>
   </g>
   <g id="text_22">
    <!-- Flame -->
    <g transform="translate(311.870794 266.572875)scale(0.12 -0.12)">
     <use xlink:href="#NimbusSanL-Regu-46" transform="scale(0.996264)"/>
     <use xlink:href="#NimbusSanL-Regu-6c" transform="translate(60.871631 0)scale(0.996264)"/>
     <use xlink:href="#NimbusSanL-Regu-61" transform="translate(82.988415 0)scale(0.996264)"/>
     <use xlink:href="#NimbusSanL-Regu-6d" transform="translate(138.380092 0)scale(0.996264)"/>
     <use xlink:href="#NimbusSanL-Regu-65" transform="translate(221.368522 0)scale(0.996264)"/>
    </g>
   </g>
   <g id="text_23">
    <!-- Cs Plasma -->
    <g transform="translate(367.850124 244.923893)scale(0.12 -0.12)">
     <defs>
      <path id="NimbusSanL-Regu-43" d="M 4237 3229 
C 4051 4252 3462 4750 2438 4750 
C 1811 4750 1306 4552 960 4168 
C 538 3709 307 3045 307 2291 
C 307 1525 544 868 986 414 
C 1344 44 1805 -128 2413 -128 
C 3552 -128 4192 485 4333 1717 
L 3718 1717 
C 3667 1399 3603 1182 3507 997 
C 3315 614 2918 397 2419 397 
C 1491 397 902 1137 902 2298 
C 902 3491 1466 4224 2368 4224 
C 2746 4224 3098 4110 3290 3930 
C 3462 3771 3558 3573 3629 3229 
L 4237 3229 
z
" transform="scale(0.015625)"/>
     </defs>
     <use xlink:href="#NimbusSanL-Regu-43" transform="scale(0.996264)"/>
     <use xlink:href="#NimbusSanL-Regu-73" transform="translate(71.929985 0)scale(0.996264)"/>
     <use xlink:href="#NimbusSanL-Regu-50" transform="translate(149.438355 0)scale(0.996264)"/>
     <use xlink:href="#NimbusSanL-Regu-6c" transform="translate(215.888386 0)scale(0.996264)"/>
     <use xlink:href="#NimbusSanL-Regu-61" transform="translate(238.00517 0)scale(0.996264)"/>
     <use xlink:href="#NimbusSanL-Regu-73" transform="translate(293.396847 0)scale(0.996264)"/>
     <use xlink:href="#NimbusSanL-Regu-6d" transform="translate(343.210048 0)scale(0.996264)"/>
     <use xlink:href="#NimbusSanL-Regu-61" transform="translate(426.198478 0)scale(0.996264)"/>
    </g>
   </g>
   <g id="text_24">
    <!-- Galaxy Cluster -->
    <g transform="translate(106.613251 69.724992)scale(0.12 -0.12)">
     <defs>
      <path id="NimbusSanL-Regu-78" d="M 1869 1737 
L 2995 3359 
L 2394 3359 
L 1587 2141 
L 781 3359 
L 173 3359 
L 1293 1712 
L 109 0 
L 717 0 
L 1568 1288 
L 2406 0 
L 3027 0 
L 1869 1737 
z
" transform="scale(0.015625)"/>
     </defs>
     <use xlink:href="#NimbusSanL-Regu-47" transform="scale(0.996264)"/>
     <use xlink:href="#NimbusSanL-Regu-61" transform="translate(77.50837 0)scale(0.996264)"/>
     <use xlink:href="#NimbusSanL-Regu-6c" transform="translate(132.900047 0)scale(0.996264)"/>
     <use xlink:href="#NimbusSanL-Regu-61" transform="translate(155.016831 0)scale(0.996264)"/>
     <use xlink:href="#NimbusSanL-Regu-78" transform="translate(210.408508 0)scale(0.996264)"/>
     <use xlink:href="#NimbusSanL-Regu-79" transform="translate(260.221709 0)scale(0.996264)"/>
     <use xlink:href="#NimbusSanL-Regu-43" transform="translate(337.730079 0)scale(0.996264)"/>
     <use xlink:href="#NimbusSanL-Regu-6c" transform="translate(409.660064 0)scale(0.996264)"/>
     <use xlink:href="#NimbusSanL-Regu-75" transform="translate(431.776848 0)scale(0.996264)"/>
     <use xlink:href="#NimbusSanL-Regu-73" transform="translate(487.168525 0)scale(0.996264)"/>
     <use xlink:href="#NimbusSanL-Regu-74" transform="translate(536.981726 0)scale(0.996264)"/>
     <use xlink:href="#NimbusSanL-Regu-65" transform="translate(564.676895 0)scale(0.996264)"/>
     <use xlink:href="#NimbusSanL-Regu-72" transform="translate(620.068572 0)scale(0.996264)"/>
    </g>
   </g>
   <g id="text_25">
    <!-- Supernova Remnant -->
    <g transform="translate(143.932804 100.957872)scale(0.12 -0.12)">
     <defs>
      <path id="NimbusSanL-Regu-53" d="M 3814 3335 
C 3808 4255 3181 4788 2106 4788 
C 1082 4788 448 4260 448 3410 
C 448 2837 749 2477 1363 2316 
L 2522 2007 
C 3110 1852 3379 1614 3379 1247 
C 3379 995 3245 738 3046 597 
C 2861 468 2566 397 2189 397 
C 1683 397 1338 520 1114 790 
C 941 996 864 1222 870 1511 
L 307 1511 
C 314 1081 397 798 582 540 
C 902 103 1440 -128 2150 -128 
C 2707 -128 3162 1 3462 232 
C 3776 483 3974 901 3974 1307 
C 3974 1886 3616 2311 2982 2485 
L 1811 2801 
C 1248 2955 1043 3135 1043 3496 
C 1043 3972 1459 4288 2086 4288 
C 2829 4288 3245 3947 3251 3335 
L 3814 3335 
z
" transform="scale(0.015625)"/>
      <path id="NimbusSanL-Regu-76" d="M 1824 0 
L 3110 3360 
L 2509 3360 
L 1562 635 
L 666 3360 
L 64 3360 
L 1242 0 
L 1824 0 
z
" transform="scale(0.015625)"/>
     </defs>
     <use xlink:href="#NimbusSanL-Regu-53" transform="scale(0.996264)"/>
     <use xlink:href="#NimbusSanL-Regu-75" transform="translate(66.450031 0)scale(0.996264)"/>
     <use xlink:href="#NimbusSanL-Regu-70" transform="translate(121.841708 0)scale(0.996264)"/>
     <use xlink:href="#NimbusSanL-Regu-65" transform="translate(177.233385 0)scale(0.996264)"/>
     <use xlink:href="#NimbusSanL-Regu-72" transform="translate(232.625062 0)scale(0.996264)"/>
     <use xlink:href="#NimbusSanL-Regu-6e" transform="translate(268.290906 0)scale(0.996264)"/>
     <use xlink:href="#NimbusSanL-Regu-6f" transform="translate(323.682583 0)scale(0.996264)"/>
     <use xlink:href="#NimbusSanL-Regu-76" transform="translate(377.580867 0)scale(0.996264)"/>
     <use xlink:href="#NimbusSanL-Regu-61" transform="translate(424.903438 0)scale(0.996264)"/>
     <use xlink:href="#NimbusSanL-Regu-52" transform="translate(507.990285 0)scale(0.996264)"/>
     <use xlink:href="#NimbusSanL-Regu-65" transform="translate(579.92027 0)scale(0.996264)"/>
     <use xlink:href="#NimbusSanL-Regu-6d" transform="translate(635.311947 0)scale(0.996264)"/>
     <use xlink:href="#NimbusSanL-Regu-6e" transform="translate(718.300377 0)scale(0.996264)"/>
     <use xlink:href="#NimbusSanL-Regu-61" transform="translate(773.692054 0)scale(0.996264)"/>
     <use xlink:href="#NimbusSanL-Regu-6e" transform="translate(829.083731 0)scale(0.996264)"/>
     <use xlink:href="#NimbusSanL-Regu-74" transform="translate(884.475408 0)scale(0.996264)"/>
    </g>
   </g>
   <g id="text_26">
    <!-- Solar Interior -->
    <g transform="translate(647.746774 100.957872)scale(0.12 -0.12)">
     <use xlink:href="#NimbusSanL-Regu-53" transform="scale(0.996264)"/>
     <use xlink:href="#NimbusSanL-Regu-6f" transform="translate(66.450031 0)scale(0.996264)"/>
     <use xlink:href="#NimbusSanL-Regu-6c" transform="translate(121.841708 0)scale(0.996264)"/>
     <use xlink:href="#NimbusSanL-Regu-61" transform="translate(143.958492 0)scale(0.996264)"/>
     <use xlink:href="#NimbusSanL-Regu-72" transform="translate(199.350169 0)scale(0.996264)"/>
     <use xlink:href="#NimbusSanL-Regu-49" transform="translate(260.220569 0)scale(0.996264)"/>
     <use xlink:href="#NimbusSanL-Regu-6e" transform="translate(287.915738 0)scale(0.996264)"/>
     <use xlink:href="#NimbusSanL-Regu-74" transform="translate(343.307415 0)scale(0.996264)"/>
     <use xlink:href="#NimbusSanL-Regu-65" transform="translate(371.002585 0)scale(0.996264)"/>
     <use xlink:href="#NimbusSanL-Regu-72" transform="translate(426.394262 0)scale(0.996264)"/>
     <use xlink:href="#NimbusSanL-Regu-69" transform="translate(461.062869 0)scale(0.996264)"/>
     <use xlink:href="#NimbusSanL-Regu-6f" transform="translate(483.179653 0)scale(0.996264)"/>
     <use xlink:href="#NimbusSanL-Regu-72" transform="translate(538.57133 0)scale(0.996264)"/>
    </g>
   </g>
   <g id="text_27">
    <!-- Solar Corona -->
    <g transform="translate(311.870794 132.190752)scale(0.12 -0.12)">
     <use xlink:href="#NimbusSanL-Regu-53" transform="scale(0.996264)"/>
     <use xlink:href="#NimbusSanL-Regu-6f" transform="translate(66.450031 0)scale(0.996264)"/>
     <use xlink:href="#NimbusSanL-Regu-6c" transform="translate(121.841708 0)scale(0.996264)"/>
     <use xlink:href="#NimbusSanL-Regu-61" transform="translate(143.958492 0)scale(0.996264)"/>
     <use xlink:href="#NimbusSanL-Regu-72" transform="translate(199.350169 0)scale(0.996264)"/>
     <use xlink:href="#NimbusSanL-Regu-43" transform="translate(260.220569 0)scale(0.996264)"/>
     <use xlink:href="#NimbusSanL-Regu-6f" transform="translate(332.150554 0)scale(0.996264)"/>
     <use xlink:href="#NimbusSanL-Regu-72" transform="translate(387.542231 0)scale(0.996264)"/>
     <use xlink:href="#NimbusSanL-Regu-6f" transform="translate(420.71746 0)scale(0.996264)"/>
     <use xlink:href="#NimbusSanL-Regu-6e" transform="translate(476.109137 0)scale(0.996264)"/>
     <use xlink:href="#NimbusSanL-Regu-61" transform="translate(531.500814 0)scale(0.996264)"/>
    </g>
   </g>
   <g id="text_28">
    <g id="patch_19">
     <path d="M 523.580461 193.854623 
L 555.030522 175.982196 
L 547.995767 163.603156 
L 516.545706 181.475583 
z
" style="fill: #ffffff; stroke: #ffffff; stroke-linejoin: miter"/>
    </g>
    <!-- $N_\mathrm{{D}}=1$ -->
    <g style="fill: #d62728" transform="translate(523.751666 188.144641)rotate(-29.608684)scale(0.09 -0.09)">
     <defs>
      <path id="CMMI12-4e" d="M 4736 3698 
C 4806 3974 4909 4166 5395 4166 
C 5414 4166 5491 4166 5491 4279 
C 5491 4352 5434 4352 5408 4352 
C 5280 4352 4954 4352 4826 4352 
L 4518 4352 
C 4429 4352 4314 4352 4224 4352 
C 4186 4352 4109 4352 4109 4230 
C 4109 4166 4160 4166 4205 4166 
C 4589 4166 4614 4019 4614 3903 
C 4614 3846 4608 3826 4589 3737 
L 3866 850 
L 2496 4249 
C 2451 4352 2445 4352 2304 4352 
L 1523 4352 
C 1395 4352 1338 4352 1338 4230 
C 1338 4166 1382 4166 1504 4166 
C 1536 4166 1914 4166 1914 4115 
C 1914 4102 1901 4051 1894 4032 
L 1043 635 
C 966 320 813 186 390 186 
C 358 186 294 186 294 67 
C 294 0 358 0 378 0 
C 506 0 832 0 960 0 
L 1267 0 
C 1357 0 1466 0 1555 0 
C 1600 0 1670 0 1670 122 
C 1670 180 1606 186 1581 186 
C 1370 186 1165 224 1165 454 
C 1165 505 1178 562 1190 613 
L 2054 4032 
C 2093 3968 2093 3956 2118 3898 
L 3642 115 
C 3674 38 3686 0 3744 0 
C 3808 0 3814 19 3840 128 
L 4736 3698 
z
" transform="scale(0.015625)"/>
      <path id="CMR17-44" d="M 333 4352 
L 333 4186 
C 774 4186 845 4186 845 3900 
L 845 452 
C 845 166 774 166 333 166 
L 333 0 
L 2368 0 
C 3398 0 4224 943 4224 2141 
C 4224 3346 3411 4352 2368 4352 
L 333 4352 
z
M 1523 166 
C 1267 166 1254 197 1254 414 
L 1254 3938 
C 1254 4155 1267 4186 1523 4186 
L 2240 4186 
C 2771 4186 3750 3874 3750 2141 
C 3750 1242 3488 879 3366 707 
C 3213 510 2848 166 2240 166 
L 1523 166 
z
" transform="scale(0.015625)"/>
      <path id="CMR17-3d" d="M 4115 2017 
C 4211 2017 4307 2017 4307 2125 
C 4307 2240 4198 2240 4090 2240 
L 512 2240 
C 403 2240 294 2240 294 2125 
C 294 2017 390 2017 486 2017 
L 4115 2017 
z
M 4090 896 
C 4198 896 4307 896 4307 1011 
C 4307 1119 4211 1119 4115 1119 
L 486 1119 
C 390 1119 294 1119 294 1011 
C 294 896 403 896 512 896 
L 4090 896 
z
" transform="scale(0.015625)"/>
     </defs>
     <use xlink:href="#CMMI12-4e" transform="scale(0.996264)"/>
     <use xlink:href="#CMR17-44" transform="translate(78.115119 -14.943915)scale(0.697382)"/>
     <use xlink:href="#CMR17-3d" transform="translate(155.56253 0)scale(0.996264)"/>
     <use xlink:href="#CMR17-31" transform="translate(254.951327 0)scale(0.996264)"/>
    </g>
   </g>
   <g id="text_29">
    <g id="patch_20">
     <path d="M 165.542482 289.750098 
L 204.174476 267.796325 
L 196.962233 255.10496 
L 158.330238 277.058733 
z
" style="fill: #ffffff; stroke: #ffffff; stroke-linejoin: miter"/>
    </g>
    <!-- $N_\mathrm{D}=10^{5}$ -->
    <g style="fill: #d62728" transform="translate(165.713686 284.040116)rotate(-29.608684)scale(0.09 -0.09)">
     <use xlink:href="#CMMI12-4e" transform="scale(0.996264)"/>
     <use xlink:href="#CMR17-44" transform="translate(78.115119 -14.943915)scale(0.697382)"/>
     <use xlink:href="#CMR17-3d" transform="translate(155.56253 0)scale(0.996264)"/>
     <use xlink:href="#CMR17-31" transform="translate(254.951327 0)scale(0.996264)"/>
     <use xlink:href="#CMR17-30" transform="translate(300.641804 0)scale(0.996264)"/>
     <use xlink:href="#CMR17-35" transform="translate(346.332281 36.153639)scale(0.697382)"/>
    </g>
   </g>
   <g id="text_30">
    <g id="patch_21">
     <path d="M 145.294747 196.953862 
L 187.102657 173.195281 
L 179.890414 160.503916 
L 138.082504 184.262497 
z
" style="fill: #ffffff; stroke: #ffffff; stroke-linejoin: miter"/>
    </g>
    <!-- $N_\mathrm{D}=10^{10}$ -->
    <g style="fill: #d62728" transform="translate(145.465952 191.243881)rotate(-29.608684)scale(0.09 -0.09)">
     <use xlink:href="#CMMI12-4e" transform="scale(0.996264)"/>
     <use xlink:href="#CMR17-44" transform="translate(78.115119 -14.943915)scale(0.697382)"/>
     <use xlink:href="#CMR17-3d" transform="translate(155.56253 0)scale(0.996264)"/>
     <use xlink:href="#CMR17-31" transform="translate(254.951327 0)scale(0.996264)"/>
     <use xlink:href="#CMR17-30" transform="translate(300.641804 0)scale(0.996264)"/>
     <use xlink:href="#CMR17-31" transform="translate(346.332281 36.153639)scale(0.697382)"/>
     <use xlink:href="#CMR17-30" transform="translate(378.315463 36.153639)scale(0.697382)"/>
    </g>
   </g>
   <g id="text_31">
    <g id="patch_22">
     <path d="M 201.274077 61.611382 
L 243.081987 37.852801 
L 235.869744 25.161437 
L 194.061834 48.920018 
z
" style="fill: #ffffff; stroke: #ffffff; stroke-linejoin: miter"/>
    </g>
    <!-- $N_\mathrm{D}=10^{15}$ -->
    <g style="fill: #d62728" transform="translate(201.445282 55.901401)rotate(-29.608684)scale(0.09 -0.09)">
     <use xlink:href="#CMMI12-4e" transform="scale(0.996264)"/>
     <use xlink:href="#CMR17-44" transform="translate(78.115119 -14.943915)scale(0.697382)"/>
     <use xlink:href="#CMR17-3d" transform="translate(155.56253 0)scale(0.996264)"/>
     <use xlink:href="#CMR17-31" transform="translate(254.951327 0)scale(0.996264)"/>
     <use xlink:href="#CMR17-30" transform="translate(300.641804 0)scale(0.996264)"/>
     <use xlink:href="#CMR17-31" transform="translate(346.332281 36.153639)scale(0.697382)"/>
     <use xlink:href="#CMR17-35" transform="translate(378.315463 36.153639)scale(0.697382)"/>
    </g>
   </g>
   <g id="text_32">
    <g id="patch_23">
     <path d="M 79.905088 152.279014 
L 108.593128 103.370532 
L 96.001861 95.984926 
L 67.31382 144.893408 
z
" style="fill: #ffffff; stroke: #ffffff; stroke-linejoin: miter"/>
    </g>
    <!-- $\lambda_{\mathrm{D}e} = 10^{4}\;\mathrm{m}$ -->
    <g style="fill: #1f77b4" transform="translate(77.198638 147.248276)rotate(-59.605574)scale(0.09 -0.09)">
     <defs>
      <path id="CMMI12-15" d="M 1978 3965 
C 1818 4416 1312 4416 1229 4416 
C 1190 4416 1120 4416 1120 4352 
C 1120 4302 1158 4295 1190 4289 
C 1286 4276 1363 4263 1466 4080 
C 1530 3959 2189 2059 2189 2046 
C 2189 2040 2182 2033 2131 1982 
L 467 311 
C 390 234 339 183 339 102 
C 339 12 416 -64 518 -64 
C 544 -64 614 -51 653 -13 
C 755 82 1670 1194 2253 1881 
C 2419 1383 2624 797 2822 261 
C 2854 166 2886 76 2976 -6 
C 3040 -64 3053 -64 3232 -64 
L 3354 -64 
C 3379 -64 3424 -64 3424 -13 
C 3424 13 3418 19 3392 45 
C 3334 115 3290 229 3264 306 
L 1978 3965 
z
" transform="scale(0.015625)"/>
      <path id="CMMI12-65" d="M 1146 1479 
C 1318 1479 1754 1479 2061 1595 
C 2547 1783 2592 2158 2592 2274 
C 2592 2558 2349 2816 1926 2816 
C 1254 2816 288 2210 288 1073 
C 288 402 672 -64 1254 -64 
C 2125 -64 2675 609 2675 692 
C 2675 730 2637 762 2611 762 
C 2592 762 2586 756 2528 699 
C 2118 159 1510 64 1267 64 
C 902 64 710 350 710 822 
C 710 911 710 1071 806 1479 
L 1146 1479 
z
M 838 1600 
C 1114 2592 1722 2689 1926 2689 
C 2208 2689 2400 2522 2400 2277 
C 2400 1600 1376 1600 1107 1600 
L 838 1600 
z
" transform="scale(0.015625)"/>
      <path id="CMR17-6d" d="M 4326 1933 
C 4326 2252 4269 2790 3507 2790 
C 3072 2790 2771 2496 2656 2151 
L 2650 2151 
C 2573 2676 2195 2790 1837 2790 
C 1331 2790 1069 2400 973 2144 
L 966 2144 
L 966 2790 
L 211 2720 
L 211 2554 
C 589 2554 646 2515 646 2208 
L 646 428 
C 646 184 621 153 211 153 
L 211 -13 
C 365 0 646 0 813 0 
C 979 0 1267 0 1421 -13 
L 1421 153 
C 1011 153 986 178 986 428 
L 986 1658 
C 986 2247 1344 2688 1792 2688 
C 2266 2688 2317 2266 2317 1958 
L 2317 428 
C 2317 184 2291 153 1882 153 
L 1882 -13 
C 2035 0 2317 0 2483 0 
C 2650 0 2938 0 3091 -13 
L 3091 153 
C 2682 153 2656 178 2656 428 
L 2656 1658 
C 2656 2247 3014 2688 3462 2688 
C 3936 2688 3987 2266 3987 1958 
L 3987 428 
C 3987 184 3962 153 3552 153 
L 3552 -13 
C 3706 0 3987 0 4154 0 
C 4320 0 4608 0 4762 -13 
L 4762 153 
C 4352 153 4326 178 4326 428 
L 4326 1933 
z
" transform="scale(0.015625)"/>
     </defs>
     <use xlink:href="#CMMI12-15" transform="scale(0.996264)"/>
     <use xlink:href="#CMR17-44" transform="translate(56.904072 -14.943915)scale(0.697382)"/>
     <use xlink:href="#CMMI12-65" transform="translate(106.179342 -14.943915)scale(0.697382)"/>
     <use xlink:href="#CMR17-3d" transform="translate(165.999739 0)scale(0.996264)"/>
     <use xlink:href="#CMR17-31" transform="translate(265.388536 0)scale(0.996264)"/>
     <use xlink:href="#CMR17-30" transform="translate(311.079013 0)scale(0.996264)"/>
     <use xlink:href="#CMR17-34" transform="translate(356.769491 36.153639)scale(0.697382)"/>
     <use xlink:href="#CMR17-6d" transform="translate(416.924813 0)scale(0.996264)"/>
    </g>
   </g>
   <g id="text_33">
    <g id="patch_24">
     <path d="M 117.224641 214.744774 
L 145.912681 165.836292 
L 133.321414 158.450686 
L 104.633374 207.359167 
z
" style="fill: #ffffff; stroke: #ffffff; stroke-linejoin: miter"/>
    </g>
    <!-- $\lambda_{\mathrm{D}e} = 10^{2}\;\mathrm{m}$ -->
    <g style="fill: #1f77b4" transform="translate(114.518191 209.714035)rotate(-59.605574)scale(0.09 -0.09)">
     <use xlink:href="#CMMI12-15" transform="scale(0.996264)"/>
     <use xlink:href="#CMR17-44" transform="translate(56.904072 -14.943915)scale(0.697382)"/>
     <use xlink:href="#CMMI12-65" transform="translate(106.179342 -14.943915)scale(0.697382)"/>
     <use xlink:href="#CMR17-3d" transform="translate(165.999739 0)scale(0.996264)"/>
     <use xlink:href="#CMR17-31" transform="translate(265.388536 0)scale(0.996264)"/>
     <use xlink:href="#CMR17-30" transform="translate(311.079013 0)scale(0.996264)"/>
     <use xlink:href="#CMR17-32" transform="translate(356.769491 36.153639)scale(0.697382)"/>
     <use xlink:href="#CMR17-6d" transform="translate(416.924813 0)scale(0.996264)"/>
    </g>
   </g>
   <g id="text_34">
    <g id="patch_25">
     <path d="M 233.8344 143.994631 
L 252.910381 111.473161 
L 240.628975 104.269309 
L 221.552994 136.790779 
z
" style="fill: #ffffff; stroke: #ffffff; stroke-linejoin: miter"/>
    </g>
    <!-- $\lambda_{\mathrm{D}e} = 1$ -->
    <g style="fill: #1f77b4" transform="translate(231.12795 138.963893)rotate(-59.605574)scale(0.09 -0.09)">
     <use xlink:href="#CMMI12-15" transform="scale(0.996264)"/>
     <use xlink:href="#CMR17-44" transform="translate(56.904072 -14.943915)scale(0.697382)"/>
     <use xlink:href="#CMMI12-65" transform="translate(106.179342 -14.943915)scale(0.697382)"/>
     <use xlink:href="#CMR17-3d" transform="translate(165.999739 0)scale(0.996264)"/>
     <use xlink:href="#CMR17-31" transform="translate(265.388536 0)scale(0.996264)"/>
    </g>
   </g>
   <g id="text_35">
    <g id="patch_26">
     <path d="M 321.026025 123.52865 
L 352.626383 69.655136 
L 340.035116 62.26953 
L 308.434758 116.143044 
z
" style="fill: #ffffff; stroke: #ffffff; stroke-linejoin: miter"/>
    </g>
    <!-- $\lambda_{\mathrm{D}e} = 10^{-2}\;\mathrm{m}$ -->
    <g style="fill: #1f77b4" transform="translate(318.319575 118.497912)rotate(-59.605574)scale(0.09 -0.09)">
     <use xlink:href="#CMMI12-15" transform="scale(0.996264)"/>
     <use xlink:href="#CMR17-44" transform="translate(56.904072 -14.943915)scale(0.697382)"/>
     <use xlink:href="#CMMI12-65" transform="translate(106.179342 -14.943915)scale(0.697382)"/>
     <use xlink:href="#CMR17-3d" transform="translate(165.999739 0)scale(0.996264)"/>
     <use xlink:href="#CMR17-31" transform="translate(265.388536 0)scale(0.996264)"/>
     <use xlink:href="#CMR17-30" transform="translate(311.079013 0)scale(0.996264)"/>
     <use xlink:href="#CMSY10-0" transform="translate(356.769491 36.153639)scale(0.697382)"/>
     <use xlink:href="#CMR17-32" transform="translate(411.010484 36.153639)scale(0.697382)"/>
     <use xlink:href="#CMR17-6d" transform="translate(471.165806 0)scale(0.996264)"/>
    </g>
   </g>
   <g id="text_36">
    <g id="patch_27">
     <path d="M 321.026025 248.46017 
L 352.626383 194.586656 
L 340.035116 187.20105 
L 308.434758 241.074564 
z
" style="fill: #ffffff; stroke: #ffffff; stroke-linejoin: miter"/>
    </g>
    <!-- $\lambda_{\mathrm{D}e} = 10^{-4}\;\mathrm{m}$ -->
    <g style="fill: #1f77b4" transform="translate(318.319575 243.429432)rotate(-59.605574)scale(0.09 -0.09)">
     <use xlink:href="#CMMI12-15" transform="scale(0.996264)"/>
     <use xlink:href="#CMR17-44" transform="translate(56.904072 -14.943915)scale(0.697382)"/>
     <use xlink:href="#CMMI12-65" transform="translate(106.179342 -14.943915)scale(0.697382)"/>
     <use xlink:href="#CMR17-3d" transform="translate(165.999739 0)scale(0.996264)"/>
     <use xlink:href="#CMR17-31" transform="translate(265.388536 0)scale(0.996264)"/>
     <use xlink:href="#CMR17-30" transform="translate(311.079013 0)scale(0.996264)"/>
     <use xlink:href="#CMSY10-0" transform="translate(356.769491 36.153639)scale(0.697382)"/>
     <use xlink:href="#CMR17-34" transform="translate(411.010484 36.153639)scale(0.697382)"/>
     <use xlink:href="#CMR17-6d" transform="translate(471.165806 0)scale(0.996264)"/>
    </g>
   </g>
   <g id="text_37">
    <g id="patch_28">
     <path d="M 414.324909 217.22729 
L 445.925267 163.353776 
L 433.333999 155.96817 
L 401.733641 209.841684 
z
" style="fill: #ffffff; stroke: #ffffff; stroke-linejoin: miter"/>
    </g>
    <!-- $\lambda_{\mathrm{D}e} = 10^{-6}\;\mathrm{m}$ -->
    <g style="fill: #1f77b4" transform="translate(411.618458 212.196552)rotate(-59.605574)scale(0.09 -0.09)">
     <use xlink:href="#CMMI12-15" transform="scale(0.996264)"/>
     <use xlink:href="#CMR17-44" transform="translate(56.904072 -14.943915)scale(0.697382)"/>
     <use xlink:href="#CMMI12-65" transform="translate(106.179342 -14.943915)scale(0.697382)"/>
     <use xlink:href="#CMR17-3d" transform="translate(165.999739 0)scale(0.996264)"/>
     <use xlink:href="#CMR17-31" transform="translate(265.388536 0)scale(0.996264)"/>
     <use xlink:href="#CMR17-30" transform="translate(311.079013 0)scale(0.996264)"/>
     <use xlink:href="#CMSY10-0" transform="translate(356.769491 36.153639)scale(0.697382)"/>
     <use xlink:href="#CMR17-36" transform="translate(411.010484 36.153639)scale(0.697382)"/>
     <use xlink:href="#CMR17-6d" transform="translate(471.165806 0)scale(0.996264)"/>
    </g>
   </g>
   <g id="text_38">
    <g id="patch_29">
     <path d="M 488.964015 217.22729 
L 520.564373 163.353776 
L 507.973106 155.96817 
L 476.372748 209.841684 
z
" style="fill: #ffffff; stroke: #ffffff; stroke-linejoin: miter"/>
    </g>
    <!-- $\lambda_{\mathrm{D}e} = 10^{-8}\;\mathrm{m}$ -->
    <g style="fill: #1f77b4" transform="translate(486.257565 212.196552)rotate(-59.605574)scale(0.09 -0.09)">
     <defs>
      <path id="CMR17-38" d="M 1741 2264 
C 2144 2467 2554 2773 2554 3263 
C 2554 3841 1990 4179 1472 4179 
C 890 4179 378 3759 378 3180 
C 378 3021 416 2747 666 2505 
C 730 2442 998 2251 1171 2130 
C 883 1983 211 1634 211 934 
C 211 279 838 -128 1459 -128 
C 2144 -128 2720 362 2720 1010 
C 2720 1590 2330 1857 2074 2029 
L 1741 2264 
z
M 902 2822 
C 851 2854 595 3051 595 3351 
C 595 3739 998 4032 1459 4032 
C 1965 4032 2336 3676 2336 3262 
C 2336 2669 1670 2331 1638 2331 
C 1632 2331 1626 2331 1574 2370 
L 902 2822 
z
M 2080 1519 
C 2176 1449 2483 1240 2483 851 
C 2483 381 2010 25 1472 25 
C 890 25 448 438 448 940 
C 448 1443 838 1862 1280 2060 
L 2080 1519 
z
" transform="scale(0.015625)"/>
     </defs>
     <use xlink:href="#CMMI12-15" transform="scale(0.996264)"/>
     <use xlink:href="#CMR17-44" transform="translate(56.904072 -14.943915)scale(0.697382)"/>
     <use xlink:href="#CMMI12-65" transform="translate(106.179342 -14.943915)scale(0.697382)"/>
     <use xlink:href="#CMR17-3d" transform="translate(165.999739 0)scale(0.996264)"/>
     <use xlink:href="#CMR17-31" transform="translate(265.388536 0)scale(0.996264)"/>
     <use xlink:href="#CMR17-30" transform="translate(311.079013 0)scale(0.996264)"/>
     <use xlink:href="#CMSY10-0" transform="translate(356.769491 36.153639)scale(0.697382)"/>
     <use xlink:href="#CMR17-38" transform="translate(411.010484 36.153639)scale(0.697382)"/>
     <use xlink:href="#CMR17-6d" transform="translate(471.165806 0)scale(0.996264)"/>
    </g>
   </g>
   <g id="text_39">
    <g id="patch_30">
     <path d="M 525.359473 281.268483 
L 558.808022 224.244103 
L 546.216755 216.858496 
L 512.768206 273.882877 
z
" style="fill: #ffffff; stroke: #ffffff; stroke-linejoin: miter"/>
    </g>
    <!-- $\lambda_{\mathrm{D}e} = 10^{-10}\;\mathrm{m}$ -->
    <g style="fill: #1f77b4" transform="translate(522.653023 276.237745)rotate(-59.605574)scale(0.09 -0.09)">
     <use xlink:href="#CMMI12-15" transform="scale(0.996264)"/>
     <use xlink:href="#CMR17-44" transform="translate(56.904072 -14.943915)scale(0.697382)"/>
     <use xlink:href="#CMMI12-65" transform="translate(106.179342 -14.943915)scale(0.697382)"/>
     <use xlink:href="#CMR17-3d" transform="translate(165.999739 0)scale(0.996264)"/>
     <use xlink:href="#CMR17-31" transform="translate(265.388536 0)scale(0.996264)"/>
     <use xlink:href="#CMR17-30" transform="translate(311.079013 0)scale(0.996264)"/>
     <use xlink:href="#CMSY10-0" transform="translate(356.769491 36.153639)scale(0.697382)"/>
     <use xlink:href="#CMR17-31" transform="translate(411.010484 36.153639)scale(0.697382)"/>
     <use xlink:href="#CMR17-30" transform="translate(442.993666 36.153639)scale(0.697382)"/>
     <use xlink:href="#CMR17-6d" transform="translate(503.148988 0)scale(0.996264)"/>
    </g>
   </g>
   <g id="text_40">
    <g id="patch_31">
     <path d="M 599.99858 281.268483 
L 633.447129 224.244103 
L 620.855861 216.858496 
L 587.407313 273.882877 
z
" style="fill: #ffffff; stroke: #ffffff; stroke-linejoin: miter"/>
    </g>
    <!-- $\lambda_{\mathrm{D}e} = 10^{-12}\;\mathrm{m}$ -->
    <g style="fill: #1f77b4" transform="translate(597.29213 276.237745)rotate(-59.605574)scale(0.09 -0.09)">
     <use xlink:href="#CMMI12-15" transform="scale(0.996264)"/>
     <use xlink:href="#CMR17-44" transform="translate(56.904072 -14.943915)scale(0.697382)"/>
     <use xlink:href="#CMMI12-65" transform="translate(106.179342 -14.943915)scale(0.697382)"/>
     <use xlink:href="#CMR17-3d" transform="translate(165.999739 0)scale(0.996264)"/>
     <use xlink:href="#CMR17-31" transform="translate(265.388536 0)scale(0.996264)"/>
     <use xlink:href="#CMR17-30" transform="translate(311.079013 0)scale(0.996264)"/>
     <use xlink:href="#CMSY10-0" transform="translate(356.769491 36.153639)scale(0.697382)"/>
     <use xlink:href="#CMR17-31" transform="translate(411.010484 36.153639)scale(0.697382)"/>
     <use xlink:href="#CMR17-32" transform="translate(442.993666 36.153639)scale(0.697382)"/>
     <use xlink:href="#CMR17-6d" transform="translate(503.148988 0)scale(0.996264)"/>
    </g>
   </g>
  </g>
 </g>
 <defs>
  <clipPath id="p201b5d1985">
   <rect x="50.633921" y="7.259232" width="653.092183" height="312.328799"/>
  </clipPath>
 </defs>
</svg>
